<svg width="270" height="224" viewBox="0 0 270 224" fill="none" xmlns="http://www.w3.org/2000/svg">
<rect width="123.476" height="224" rx="20" fill="#FFF2F2"/>
<g clip-path="url(#clip0_352_2759)">
<path d="M171.98 198.465C171.932 198.387 170.798 196.505 170.405 192.599C170.044 189.014 170.276 182.973 173.429 174.546C179.401 158.581 172.052 145.699 171.977 145.571L172.34 145.362C172.359 145.395 174.255 148.679 175.375 153.909C176.855 160.842 176.316 168.051 173.821 174.691C167.859 190.629 172.292 198.173 172.337 198.248L171.98 198.465Z" fill="#8F9BB3"/>
<path d="M169.644 144.634C171.148 144.634 172.368 143.422 172.368 141.927C172.368 140.432 171.148 139.22 169.644 139.22C168.14 139.22 166.921 140.432 166.921 141.927C166.921 143.422 168.14 144.634 169.644 144.634Z" fill="#FF3D71"/>
<path d="M178.234 154.629C179.738 154.629 180.958 153.417 180.958 151.922C180.958 150.427 179.738 149.215 178.234 149.215C176.73 149.215 175.511 150.427 175.511 151.922C175.511 153.417 176.73 154.629 178.234 154.629Z" fill="#8F9BB3"/>
<path d="M172.368 161.292C173.872 161.292 175.092 160.08 175.092 158.585C175.092 157.09 173.872 155.878 172.368 155.878C170.864 155.878 169.644 157.09 169.644 158.585C169.644 160.08 170.864 161.292 172.368 161.292Z" fill="#FF3D71"/>
<path d="M179.491 166.914C180.995 166.914 182.215 165.702 182.215 164.207C182.215 162.712 180.995 161.5 179.491 161.5C177.987 161.5 176.768 162.712 176.768 164.207C176.768 165.702 177.987 166.914 179.491 166.914Z" fill="#FF3D71"/>
<path d="M170.273 175.66C171.777 175.66 172.996 174.448 172.996 172.953C172.996 171.458 171.777 170.246 170.273 170.246C168.769 170.246 167.549 171.458 167.549 172.953C167.549 174.448 168.769 175.66 170.273 175.66Z" fill="#8F9BB3"/>
<path d="M173.625 198.564C173.625 198.564 170.901 191.901 179.072 186.904L173.625 198.564Z" fill="#8F9BB3"/>
<path d="M170.275 198.443C170.275 198.443 169.036 191.358 159.442 191.418L170.275 198.443Z" fill="#8F9BB3"/>
<path d="M107.839 121.529H107.42V173.777H107.839V121.529Z" fill="#8F9BB3"/>
<path d="M120.619 113.489H120.2V181.817H120.619V113.489Z" fill="#8F9BB3"/>
<path d="M133.399 111.213H132.98V184.093H133.399V111.213Z" fill="#8F9BB3"/>
<path d="M146.179 113.489H145.76V181.817H146.179V113.489Z" fill="#8F9BB3"/>
<path d="M158.96 121.529H158.54V173.777H158.96V121.529Z" fill="#8F9BB3"/>
<path d="M165.475 130.162H100.904V130.578H165.475V130.162Z" fill="#8F9BB3"/>
<path d="M169.854 147.445H96.525V147.861H169.854V147.445Z" fill="#8F9BB3"/>
<path d="M165.475 164.728H100.904V165.144H165.475V164.728Z" fill="#8F9BB3"/>
<path d="M233.336 130.578C253.585 130.578 270 114.264 270 94.1384C270 74.0133 253.585 57.6987 233.336 57.6987C213.086 57.6987 196.671 74.0133 196.671 94.1384C196.671 114.264 213.086 130.578 233.336 130.578Z" fill="#FF3D71"/>
<path d="M171.321 86.9631H170.901V139.211H171.321V86.9631Z" fill="#8F9BB3"/>
<path d="M184.101 78.9236H183.682V147.251H184.101V78.9236Z" fill="#8F9BB3"/>
<path d="M196.881 76.6475H196.462V149.527H196.881V76.6475Z" fill="#8F9BB3"/>
<path d="M209.661 78.9236H209.242V147.251H209.661V78.9236Z" fill="#8F9BB3"/>
<path d="M222.441 86.9631H222.022V139.211H222.441V86.9631Z" fill="#8F9BB3"/>
<path d="M228.957 95.5962H164.386V96.0126H228.957V95.5962Z" fill="#8F9BB3"/>
<path d="M233.336 112.879H160.007V113.296H233.336V112.879Z" fill="#8F9BB3"/>
<path d="M228.957 130.162H164.386V130.578H228.957V130.162Z" fill="#8F9BB3"/>
<path d="M225.011 33.1445H225.011C214.925 33.1445 206.749 42.1626 206.749 53.287V67.4206H211.123L213.655 62.1839L213.022 67.4206H241.134L243.436 62.66L242.86 67.4206H246.025V56.3232C246.025 43.522 236.617 33.1445 225.011 33.1445Z" fill="#2E3A59"/>
<path d="M216.196 58.5471C216.196 58.5471 221.896 71.7654 214.296 74.409L221.896 99.335L234.816 98.5797L238.236 90.271L237.476 77.808L236.336 69.4994C236.336 69.4994 228.356 71.3877 229.116 57.4141L216.196 58.5471Z" fill="#FFB8B8"/>
<path d="M213.156 74.0314C213.156 74.0314 200.616 72.8984 201.756 81.9624C202.896 91.0264 204.036 92.9147 204.036 92.9147L205.176 106.511L198.336 110.665H191.876C191.876 110.665 172.116 115.197 181.996 120.107C191.876 125.016 195.296 116.33 195.296 116.33C195.296 116.33 213.536 116.33 214.676 113.309C215.816 110.287 213.156 74.0314 213.156 74.0314Z" fill="#FFB8B8"/>
<path d="M237.476 70.2549C237.476 70.2549 249.255 66.1006 250.015 75.1646C250.775 84.2286 250.775 84.9839 250.775 84.9839L253.055 97.8245C253.055 97.8245 257.615 109.155 257.615 112.554C257.615 115.953 261.035 126.527 261.035 126.527C261.035 126.527 265.595 141.256 260.655 140.878C255.715 140.501 254.955 125.017 254.955 125.017L244.695 104.623L241.655 92.1596L237.476 70.2549Z" fill="#FFB8B8"/>
<path d="M215.056 72.5208H212.016L211.636 88.3827C211.636 88.3827 206.696 95.1807 212.776 101.223L214.296 111.043L242.036 109.91L243.935 99.7127C243.935 99.7127 247.735 91.4041 242.416 83.8508L237.476 68.3665H234.816C234.816 68.3665 240.976 90.9426 227.976 91.4041C217.336 91.7817 215.056 72.5208 215.056 72.5208Z" fill="white"/>
<path d="M259.183 166.306C250.615 175.886 240.182 183.64 228.515 189.1C228.511 170.202 228.735 154.851 228.735 154.851C228.735 154.851 227.121 171.072 225.072 190.627C213.367 195.538 200.787 198.06 188.081 198.044C187.855 198.044 187.629 198.044 187.402 198.039C197.857 160.704 213.107 117.914 213.528 116.733C213.532 116.725 213.534 116.717 213.537 116.708L214.457 113.66L214.848 112.362L215.259 111.003L215.816 109.154L240.516 108.4L241.207 109.943L243.556 115.196C243.761 115.255 243.955 115.346 244.132 115.465C248.577 118.366 254.182 140.504 259.183 166.306Z" fill="#2E3A59"/>
<path d="M243.176 105.378L213.156 106.511C213.156 106.511 211.786 116.708 213.156 116.708C213.536 116.708 244.696 119.351 244.316 114.819C243.936 110.287 243.176 105.378 243.176 105.378Z" fill="#8F9BB3"/>
<path d="M222.069 62.8725C227.966 62.8725 232.746 58.1216 232.746 52.261C232.746 46.4004 227.966 41.6494 222.069 41.6494C216.172 41.6494 211.392 46.4004 211.392 52.261C211.392 58.1216 216.172 62.8725 222.069 62.8725Z" fill="#FFB8B8"/>
<path d="M230.202 38.6931C228.369 36.3466 225.664 34.8604 222.645 34.8604H222.287C215.374 34.8604 209.77 41.0773 209.77 48.7463V48.7463H212.087L212.461 45.9164L213.009 48.7463H226.747L227.898 46.3522L227.61 48.7463H230.313C231.574 54.9711 229.762 61.1958 224.877 67.4205H229.48L231.782 62.6323L231.207 67.4205H239.983L241.709 56.4075C241.709 48.1598 236.888 41.1658 230.202 38.6931Z" fill="#2E3A59"/>
<path d="M232.726 39.8526C236.503 39.8526 239.566 36.809 239.566 33.0546C239.566 29.3002 236.503 26.2566 232.726 26.2566C228.948 26.2566 225.886 29.3002 225.886 33.0546C225.886 36.809 228.948 39.8526 232.726 39.8526Z" fill="#2E3A59"/>
<path d="M182.757 116.48C184.656 116.48 186.196 114.95 186.196 113.062C186.196 111.175 184.656 109.645 182.757 109.645C180.858 109.645 179.318 111.175 179.318 113.062C179.318 114.95 180.858 116.48 182.757 116.48Z" fill="#FF3D71"/>
<path d="M182.757 113.062H107.79V82.9861H170.148L182.757 113.062Z" fill="#EDF1F7"/>
<path d="M183.099 113.29H98.6201V76.3782H167.779L167.838 76.5191L183.099 113.29ZM99.0786 112.834H182.414L167.472 76.8339H99.0786V112.834Z" fill="#8F9BB3"/>
<path d="M157.539 87.7708H120.17V91.1885H157.539V87.7708Z" fill="#8F9BB3"/>
<path d="M157.539 94.834H120.17V98.2518H157.539V94.834Z" fill="#8F9BB3"/>
<path d="M157.539 101.897H120.17V105.315H157.539V101.897Z" fill="#8F9BB3"/>
<path d="M75.7763 148.35C75.2791 148.35 74.793 148.203 74.3796 147.929C73.9661 147.654 73.6439 147.264 73.4536 146.807C73.2633 146.351 73.2135 145.848 73.3105 145.364C73.4075 144.879 73.647 144.434 73.9986 144.084C74.3502 143.735 74.7982 143.497 75.2859 143.4C75.7736 143.304 76.2791 143.353 76.7385 143.542C77.1979 143.732 77.5905 144.052 77.8668 144.463C78.143 144.874 78.2905 145.357 78.2905 145.851C78.2897 146.513 78.0246 147.149 77.5533 147.617C77.0819 148.085 76.4429 148.349 75.7763 148.35ZM75.7763 143.769C75.362 143.769 74.9569 143.891 74.6124 144.12C74.2678 144.348 73.9993 144.674 73.8407 145.054C73.6821 145.435 73.6406 145.853 73.7215 146.257C73.8023 146.661 74.0019 147.032 74.2949 147.323C74.5879 147.615 74.9612 147.813 75.3676 147.893C75.774 147.974 76.1953 147.932 76.5781 147.775C76.9609 147.617 77.2881 147.35 77.5184 147.008C77.7486 146.665 77.8714 146.263 77.8714 145.851C77.8708 145.299 77.6499 144.77 77.2571 144.379C76.8643 143.989 76.3318 143.769 75.7763 143.769Z" fill="#2E3A59"/>
<path d="M164.154 54.2915H160.018V50.1809H164.154V54.2915ZM160.336 53.9753H163.836V50.4971H160.336V53.9753Z" fill="#8F9BB3"/>
<path d="M85.9317 55.1411L83.1106 52.1351L86.1351 49.3313L88.9562 52.3373L85.9317 55.1411ZM83.5603 52.1506L85.9473 54.6942L88.5066 52.3217L86.1195 49.7782L83.5603 52.1506Z" fill="#2E3A59"/>
</g>
<defs>
<clipPath id="clip0_352_2759">
<rect width="196.738" height="172.308" fill="white" transform="translate(73.2622 26.2566)"/>
</clipPath>
</defs>
</svg>
